<svg width="87" height="29" viewBox="0 0 87 29" fill="none" xmlns="http://www.w3.org/2000/svg">
<path d="M35.9375 6.61719C32.75 9.80469 30.1406 12.4453 30.1406 12.4766C30.1406 12.5078 30.5156 12.5312 30.9844 12.5312H31.8203L36.8203 7.53125L41.8203 2.53125L41.9766 2.72656C42.0703 2.82812 43.1094 3.90625 44.2891 5.125C47.9688 8.92188 48.4297 9.40625 49.9531 10.9844L51.4297 12.5312H52.2734C52.7344 12.5312 53.1094 12.5078 53.1094 12.4766C53.1094 12.4141 52.4609 11.7188 50.6562 9.875C49.8359 9.03906 47.9297 7.08594 46.4297 5.53906C42.4062 1.39062 41.8359 0.8125 41.7812 0.8125C41.7578 0.8125 39.1328 3.42188 35.9375 6.61719Z" fill="#881305"/>
<path d="M41.6875 6.89844C41.6797 6.9375 40.625 8.03906 39.3516 9.34375C38.0859 10.6406 36.7578 12.0078 36.4062 12.375L35.7734 13.0391L36.1016 13.0625C36.4219 13.0859 36.4453 13.0703 36.9688 12.5156C37.2578 12.2031 38.1016 11.3125 38.8438 10.5469C39.5781 9.77344 40.2344 9.08594 40.2969 9.01562C40.3594 8.94531 40.7344 8.55469 41.1328 8.14062L41.8516 7.40625L44.6875 10.2422L47.5234 13.0781H47.875H48.2266L47.3672 12.2422C46.8984 11.7891 45.4688 10.3828 44.2031 9.125C42.9297 7.85937 41.8516 6.82812 41.8047 6.82812C41.7578 6.82812 41.7031 6.85937 41.6875 6.89844Z" fill="#FACC15"/>
<path d="M0.921875 7.60157V8.00001H1.19531H1.46875V10.4453C1.46875 12.4375 1.49219 12.9219 1.57813 13.0469C1.67969 13.1875 1.79688 13.1953 3.29688 13.1953C5.19531 13.1953 5.15625 13.2109 5.20313 12.4141L5.23438 11.9063H4.84375C4.45313 11.9063 4.44531 11.9141 4.42188 12.1563L4.39844 12.4141L3.36719 12.4375L2.32813 12.4609V11.5156V10.5781H3.34375H4.35938V10.2266V9.87501H3.34375H2.32813V8.93751V7.99219L3.25 8.01563L4.16406 8.03907L4.1875 8.28907C4.21094 8.53907 4.21875 8.54688 4.60156 8.54688H4.98438V8.08594C4.98438 7.75001 4.94531 7.57813 4.83594 7.44532C4.6875 7.25782 4.67188 7.25782 2.80469 7.23438L0.921875 7.21094V7.60157Z" fill="black"/>
<path d="M19.5156 7.5625C19.5156 7.86719 19.5391 7.92188 19.6641 7.92188C20.0781 7.92188 20.0625 7.82812 20.0625 10.5C20.0625 12.6172 20.0781 12.9922 20.1797 13.0781C20.2422 13.1328 20.5469 13.1953 20.8438 13.2188L21.3906 13.2578V12.8906C21.3906 12.5859 21.3672 12.5312 21.2422 12.5312C20.8281 12.5312 20.8438 12.625 20.8438 10C20.8438 8.10156 20.8203 7.53125 20.7422 7.42188C20.6641 7.3125 20.4922 7.26562 20.0781 7.23438L19.5156 7.19531V7.5625Z" fill="black"/>
<path d="M6.82031 8.95313C6.20312 9.17969 5.95312 9.55469 6.02344 10.1563C6.07812 10.6641 6.40625 10.9688 7.26562 11.3359C8.07812 11.6797 8.26562 11.8281 8.26562 12.1406C8.26562 12.7344 7.10156 12.7734 6.48438 12.1953L6.29688 12.0234L6.07031 12.2969L5.83594 12.5703L6.05469 12.75C6.58594 13.2031 7.46094 13.4063 8.08594 13.2422C8.67188 13.0859 9.125 12.5703 9.125 12.0625C9.125 11.5078 8.75781 11.1406 7.78125 10.7266C7.03906 10.4141 6.78125 10.2109 6.78125 9.94532C6.78125 9.42188 8.10938 9.32813 8.23438 9.84376C8.25781 9.94532 8.34375 10.0313 8.41406 10.0391C8.48438 10.0391 8.63281 10.0547 8.75781 10.0625C8.94531 10.0703 8.96875 10.0469 8.96875 9.82032C8.96875 9.19532 8.57812 8.91407 7.64062 8.88282C7.32031 8.87501 6.95312 8.90626 6.82031 8.95313Z" fill="black"/>
<path d="M11.2656 8.98439C10.7969 9.14845 10.3359 9.57814 10.0938 10.0781C9.92188 10.4375 9.88281 10.6172 9.88281 11.0781C9.89063 12.0156 10.2734 12.6719 11.0313 13.0391C11.8281 13.4297 12.8125 13.3516 13.5156 12.8594C13.8516 12.6172 13.8516 12.6094 13.6953 12.2969C13.5703 12.0625 13.4688 12.0078 13.3906 12.1328C13.2734 12.3125 12.5781 12.5547 12.1641 12.5469C11.2734 12.5469 10.6875 11.9531 10.6875 11.0625C10.6953 10.4297 11.0625 9.83595 11.5703 9.64845C11.8672 9.53126 12.4297 9.53907 12.6797 9.65626C12.8047 9.71095 12.8984 9.83595 12.9297 9.96876C12.9688 10.1719 13 10.1875 13.3125 10.1875H13.6563V9.82814C13.6563 9.53126 13.6172 9.4297 13.4219 9.25001C13.0156 8.87501 11.9531 8.7422 11.2656 8.98439Z" fill="black"/>
<path d="M15.8438 8.9922C15.3047 9.18751 14.7109 9.82813 14.5469 10.3828C14.3047 11.2344 14.5078 12.0547 15.1172 12.6563C15.5859 13.1094 16.0078 13.2734 16.7422 13.2656C17.4922 13.2656 17.9844 13.0547 18.4531 12.5313C18.8594 12.0781 18.9922 11.7344 18.9922 11.0859C19 10.1953 18.5781 9.47657 17.8203 9.09376C17.3359 8.84376 16.375 8.79688 15.8438 8.9922ZM17.3906 9.71095C17.9141 9.97657 18.1875 10.4531 18.1875 11.0859C18.1875 11.5547 18.0391 11.8906 17.6953 12.1953C16.7109 13.0547 15.2969 12.4141 15.2969 11.1016C15.2969 10.8594 15.3359 10.5703 15.3828 10.4453C15.4922 10.1563 15.8281 9.8047 16.1172 9.67188C16.4609 9.52345 17.0547 9.53907 17.3906 9.71095Z" fill="black"/>
<path d="M22.9141 8.97658C22.5078 9.12501 22.3281 9.35158 22.3281 9.72658V10.0313H22.7188C23.0859 10.0313 23.1094 10.0156 23.1094 9.83595C23.1094 9.57814 23.4063 9.46095 23.9141 9.50783C24.3906 9.54689 24.6641 9.79689 24.7266 10.2422L24.7656 10.5547L24.0391 10.6016C23.1641 10.6485 22.6719 10.8125 22.3438 11.1485C21.875 11.6328 21.875 12.461 22.3516 12.8906C22.9922 13.4766 23.9375 13.4297 24.5547 12.7656L24.7891 12.5156L24.8281 12.7735C24.875 13.1016 25.1172 13.2344 25.6719 13.2344H26.0781V12.8828C26.0781 12.5703 26.0625 12.5313 25.8984 12.5313C25.5625 12.5313 25.5313 12.4141 25.5313 11.1719C25.5313 10.1953 25.5 9.93751 25.3828 9.6797C25.2109 9.3047 24.9609 9.07033 24.6016 8.94533C24.2344 8.82814 23.2969 8.84376 22.9141 8.97658ZM24.75 11.2891C24.75 11.6016 24.5625 12.0781 24.3594 12.2969C23.8125 12.8828 22.7969 12.6719 22.7969 11.9688C22.7969 11.4844 23.4297 11.1406 24.3438 11.1328C24.7109 11.125 24.75 11.1406 24.75 11.2891Z" fill="black"/>
<path d="M1.07812 16.0391V16.9062H1.46875H1.85938V20.1875V23.4688H2.875H3.89062V22.1875V20.9062L4.85156 20.875C6.03906 20.8281 6.44531 20.6797 7.00781 20.0625C8.28906 18.6641 7.92969 16.2734 6.32812 15.4844L5.80469 15.2266L3.44531 15.2031L1.07812 15.1797V16.0391ZM5.13281 17.0078C5.48438 17.1875 5.64844 17.5 5.64062 17.9844C5.64062 18.8359 5.27344 19.1719 4.35938 19.1719H3.89062V18.0391V16.9062H4.42188C4.71094 16.9062 5.03125 16.9531 5.13281 17.0078Z" fill="black"/>
<path d="M20.6094 16.0078V16.8359L21.4531 16.8125L22.2891 16.7891L22.3125 15.9844L22.3359 15.1875H21.4688H20.6094V16.0078Z" fill="black"/>
<path d="M39.3281 15.3516C39.125 15.5078 39.125 15.5234 39.125 16.5625V17.6094H39.9844H40.8438V17.3516C40.8438 17 40.9609 16.9062 41.4062 16.9062H41.7812V20.1875V23.4766L42.8203 23.4531L43.8516 23.4297L43.875 20.1641L43.8906 16.9062H44.2656C44.7109 16.9062 44.8281 17 44.8281 17.3516V17.6094H45.7266H46.625V16.7656C46.625 15.75 46.5391 15.3984 46.2656 15.2812C46.1328 15.2109 45.1172 15.1875 42.8047 15.1875C39.6172 15.1875 39.5312 15.1953 39.3281 15.3516Z" fill="black"/>
<path d="M53.9688 16.0078V16.8281H54.7891H55.6094V16.0078V15.1875H54.7891H53.9688V16.0078Z" fill="black"/>
<path d="M71.3125 16.0078V16.8281H72.1328H72.9531V16.0078V15.1875H72.1328H71.3125V16.0078Z" fill="black"/>
<path d="M15.6875 16.7109V17.5312H15.2969H14.8984L14.9219 18.2891L14.9453 19.0547H15.2656H15.5938L15.625 20.4609C15.6562 21.5078 15.6953 21.9375 15.7891 22.1406C16.1797 23.0234 17.0312 23.4688 18.3203 23.4688H18.9688V22.6094V21.75H18.6562C18.2578 21.75 17.8359 21.5781 17.7266 21.375C17.6797 21.2812 17.6406 20.7578 17.6406 20.1172V19.0312L18.2656 19.0547L18.8906 19.0781V18.3047V17.5312H18.2656H17.6406V16.7109V15.8906H16.6641H15.6875V16.7109Z" fill="black"/>
<path d="M24.5938 16.7109V17.5312H24.2031H23.8047L23.8281 18.2891L23.8516 19.0547L24.125 19.0625C24.2734 19.0703 24.4453 19.0781 24.5 19.0859C24.5703 19.0937 24.5938 19.4219 24.5938 20.4375C24.6016 22.3047 24.7656 22.6875 25.7422 23.1719C26.2109 23.3984 26.3516 23.4297 27.0703 23.4531L27.875 23.4844V22.6328V21.7734L27.4531 21.7266C26.9766 21.6797 26.75 21.5625 26.6328 21.3047C26.5859 21.2031 26.5469 20.6484 26.5469 20.0547V19L27.1562 19.0234L27.7578 19.0547L27.7812 18.2891L27.8047 17.5312H27.1719H26.5469V16.7109V15.8906H25.5703H24.5938V16.7109Z" fill="black"/>
<path d="M10.4141 17.4844C9.89845 17.6484 9.45314 17.9063 9.12501 18.2344C7.82814 19.5313 8.04689 21.9609 9.54689 23C10.5469 23.6797 12.1172 23.7422 13.3047 23.1406C13.5234 23.0313 13.7813 22.8672 13.8828 22.7891L14.0703 22.6328L13.6875 22C13.4766 21.6484 13.2734 21.3594 13.2422 21.3594C13.2031 21.3594 13.0781 21.4219 12.9688 21.5078C12.2891 21.9766 11.3281 22.0391 10.8047 21.6406C10.5703 21.4531 10.2969 21.0391 10.2969 20.8516C10.2969 20.8281 11.1406 20.8125 12.1641 20.8125H14.0313L14.0859 20.5C14.1641 20.0234 13.9922 19.1875 13.7031 18.6563C13.3906 18.0938 12.8672 17.6719 12.25 17.5C11.7266 17.3516 10.8516 17.3438 10.4141 17.4844ZM11.6484 18.9531C11.8828 19.0781 12.0078 19.2578 12.0156 19.4609C12.0156 19.6328 11.9922 19.6406 11.1953 19.6406C10.7422 19.6406 10.375 19.625 10.375 19.6016C10.375 19.5703 10.4297 19.4531 10.4922 19.3281C10.7031 18.9219 11.2578 18.7422 11.6484 18.9531Z" fill="black"/>
<path d="M31.0781 17.4844C29.4531 17.9219 28.4844 19.3672 28.7344 20.9531C28.8984 21.9766 29.4687 22.7344 30.4219 23.2031C30.9531 23.4688 31.0781 23.5 31.8047 23.5313C32.6484 23.5703 33.2109 23.4609 33.8125 23.1563C34.3203 22.8984 34.8125 22.3906 35.0781 21.8438C35.3203 21.3516 35.3359 21.2813 35.3359 20.4609C35.3359 19.6797 35.3125 19.5625 35.1172 19.1563C34.7187 18.3438 33.9453 17.7344 32.9922 17.4844C32.5078 17.3516 31.5469 17.3516 31.0781 17.4844ZM32.6406 19.1875C33.25 19.5 33.5391 20.1797 33.3516 20.875C33.1797 21.5078 32.6641 21.9063 32.0156 21.9063C30.8672 21.9063 30.2656 20.4141 31.0391 19.5C31.4531 19.0078 32.0547 18.8906 32.6406 19.1875Z" fill="black"/>
<path d="M48.6328 17.4531C47.7891 17.6719 46.9297 18.4219 46.6328 19.2109C46.0234 20.8438 46.6719 22.5547 48.1719 23.2578C49.0703 23.6797 50.4062 23.6484 51.3437 23.1875C51.5703 23.0781 51.8594 22.9063 51.9766 22.8125L52.2031 22.6328L51.8281 21.9922C51.625 21.6484 51.4375 21.3594 51.4219 21.3594C51.4062 21.3594 51.1797 21.4688 50.9141 21.6094C49.9453 22.1172 48.9687 21.9453 48.5937 21.2031L48.4219 20.8516L50.2969 20.8281L52.1719 20.8125L52.2187 20.6094C52.2969 20.3047 52.1875 19.4531 52.0078 18.9844C51.8047 18.4219 51.3281 17.8984 50.7891 17.6328C50.4141 17.4531 50.2266 17.4141 49.6406 17.3984C49.25 17.3906 48.7969 17.4141 48.6328 17.4531ZM49.8359 18.9375C49.9844 19.0156 50.2187 19.3984 50.2187 19.5625C50.2187 19.6094 49.9062 19.6406 49.3594 19.6406C48.8906 19.6406 48.5 19.6172 48.5 19.5938C48.5 19.4375 48.8516 19.0156 49.0312 18.9453C49.3125 18.8438 49.6484 18.8438 49.8359 18.9375Z" fill="black"/>
<path d="M65.7578 17.5156C64.5625 17.9141 63.8203 18.9141 63.75 20.2422C63.6875 21.3672 64.125 22.3359 64.9687 22.9609C66.1172 23.8047 68.1641 23.7266 69.3437 22.7812L69.5312 22.6406L69.1562 22.0156C68.9531 21.6797 68.7734 21.3828 68.7578 21.3672C68.75 21.3516 68.5156 21.4531 68.25 21.6016C67.8125 21.8359 67.6875 21.8672 67.1562 21.8672C66.4922 21.8672 66.2656 21.7578 65.9453 21.2812C65.6172 20.8047 65.5781 20.8125 67.6328 20.8125H69.5L69.5469 20.4766C69.6094 20.0625 69.4922 19.3594 69.2891 18.8906C69.0234 18.3047 68.6953 17.9531 68.1328 17.6719C67.6875 17.4531 67.5234 17.4141 66.9062 17.3984C66.375 17.3828 66.0859 17.4141 65.7578 17.5156ZM67.2578 19.0859C67.3828 19.2109 67.4844 19.3906 67.4844 19.4766C67.4844 19.6328 67.4453 19.6406 66.6641 19.6406C66.1484 19.6406 65.8437 19.6094 65.8437 19.5625C65.8437 19.4141 66.1016 19.0859 66.3047 18.9766C66.6484 18.7891 67 18.8281 67.2578 19.0859Z" fill="black"/>
<path d="M78.4375 17.5234C77.9531 17.6875 77.5469 18.0547 77.2891 18.5469L77.1016 18.8984L77.0938 18.3828C77.0938 17.9531 77.0625 17.8438 76.9141 17.7031C76.7422 17.5469 76.6562 17.5312 75.625 17.5312H74.5156V18.3438V19.1641L74.8516 19.1875L75.1797 19.2109L75.2031 21.3359L75.2188 23.4688H76.1953C76.9219 23.4688 77.1719 23.4453 77.1719 23.3672C77.1719 23.3203 77.1797 22.6719 77.1953 21.9453C77.2188 20.9062 77.25 20.5469 77.3594 20.3047C77.625 19.6797 78.0078 19.4219 78.7812 19.3516L79.2891 19.3047L79.2656 18.3594C79.2422 17.4141 79.2422 17.4141 79.0469 17.3984C78.9375 17.3828 78.6641 17.4453 78.4375 17.5234Z" fill="black"/>
<path d="M81.3828 17.4766C80.5391 17.7188 80.2266 18.0859 80.1563 18.8984L80.1172 19.4062H81.0703H82.0156V19.2109C82.0156 18.9844 82.2188 18.8594 82.5859 18.8594C82.9688 18.8594 83.2656 19.1172 83.2656 19.4531V19.7188H82.8828C81.8359 19.7188 80.4766 20.1875 80.1094 20.6797C79.7422 21.1797 79.6719 21.625 79.8672 22.2734C80.1016 23.0703 80.8125 23.5391 81.7656 23.5469C82.4219 23.5469 82.7344 23.4375 83.1719 23.0469L83.4766 22.7656L83.5313 23C83.6016 23.3672 83.9297 23.4688 85.0625 23.4688H86V22.6172V21.7578L85.6719 21.7344L85.3359 21.7109L85.2969 20.3828C85.2578 19.2109 85.2344 19.0078 85.0703 18.6406C84.8516 18.1562 84.4141 17.75 83.8984 17.5625C83.4219 17.3906 81.875 17.3359 81.3828 17.4766ZM83.3125 21.1406C83.2422 21.4766 83.0703 21.7266 82.7734 21.9062C82.2891 22.2031 81.75 22.0234 81.7969 21.5781C81.8359 21.1797 82.3203 20.9219 83.0625 20.8984C83.3594 20.8906 83.3594 20.8906 83.3125 21.1406Z" fill="black"/>
<path d="M19.75 18.3437V19.1641L20.0859 19.1875L20.4141 19.2109L20.4531 21.0859C20.4766 22.3906 20.5234 23.0156 20.5938 23.1328C20.7344 23.3906 21.1875 23.4766 22.2266 23.4531L23.1484 23.4297L23.1719 22.5937L23.1953 21.7578L22.8594 21.7344L22.5234 21.7109L22.4844 19.8203C22.4375 17.375 22.5391 17.5312 20.9062 17.5312H19.75V18.3437Z" fill="black"/>
<path d="M53.1094 18.3516V19.1719H53.4141C53.6172 19.1719 53.7344 19.2109 53.7656 19.2969C53.7891 19.3672 53.8125 20.2109 53.8125 21.1719C53.8125 22.2812 53.8438 22.9922 53.8984 23.0937C54.0469 23.375 54.4375 23.4688 55.4922 23.4688H56.4688V22.6094V21.75H56.1641C55.9609 21.75 55.8438 21.7109 55.8125 21.625C55.7891 21.5547 55.7656 20.6953 55.7656 19.7109V17.9141L55.5703 17.7266C55.3906 17.5391 55.3516 17.5312 54.2422 17.5312H53.1094V18.3516Z" fill="black"/>
<path d="M57.1719 18.3516V19.1719H57.5938H58.0078L58.4141 19.7812C58.6328 20.1172 58.8125 20.4375 58.8125 20.5C58.8125 20.5547 58.4297 21.2266 57.9531 21.9844C57.4844 22.7422 57.0938 23.3906 57.0938 23.4219C57.0938 23.4453 57.5781 23.4609 58.1641 23.4531L59.2344 23.4297L59.6797 22.6641C60.0156 22.0859 60.1328 21.9297 60.1719 22.0391C60.2031 22.1172 60.3906 22.4687 60.5938 22.8203L60.9609 23.4688H62.0391C62.625 23.4688 63.1094 23.4531 63.1094 23.4297C63.1094 23.4141 62.7031 22.7422 62.2109 21.9453L61.3125 20.5L61.7422 19.8359L62.1719 19.1719H62.6016H63.0313V18.3516V17.5312H62.0625C60.8984 17.5312 60.8594 17.5547 60.4219 18.4609L60.1094 19.0859L59.7344 18.3906C59.5234 18.0078 59.2891 17.6562 59.2031 17.6094C59.125 17.5703 58.6328 17.5312 58.1172 17.5312H57.1719V18.3516Z" fill="black"/>
<path d="M70.4531 18.3516V19.1719H70.7109C70.8516 19.1719 71.0078 19.2109 71.0625 19.2656C71.1328 19.3359 71.1563 19.8672 71.1563 21.1719C71.1563 22.9844 71.1563 22.9922 71.3438 23.2109C71.5313 23.4297 71.5313 23.4297 72.6719 23.4531L73.8125 23.4844V22.625V21.7578L73.4844 21.7344L73.1484 21.7109L73.1094 19.7734C73.0625 17.3438 73.1875 17.5312 71.5781 17.5312H70.4531V18.3516Z" fill="black"/>
<path d="M1 26.3906V26.7812H11.7422H22.4844V26.3906V26H11.7422H1V26.3906Z" fill="#881305"/>
<path d="M1 27.7578V27.9531H11.7422H22.4844V27.7578V27.5625H11.7422H1V27.7578Z" fill="#FACC15"/>
<path d="M65 26.3906V26.7812H75.7422H86.4844V26.3906V26H75.7422H65V26.3906Z" fill="#881305"/>
<path d="M65 27.7578V27.9531H75.7422H86.4844V27.7578V27.5625H75.7422H65V27.7578Z" fill="#FACC15"/>
<path d="M25.321 27.817C25.321 27.946 25.375 28 25.504 28H26.416C26.545 28 26.599 27.946 26.599 27.817V27.607H26.404V27.748C26.404 27.793 26.38 27.814 26.338 27.814H25.597C25.555 27.814 25.531 27.793 25.531 27.748V27.031H26.323V26.845H25.531V26.077H26.251C26.293 26.077 26.317 26.098 26.317 26.143V26.284H26.515V26.074C26.515 25.945 26.461 25.891 26.332 25.891H25.126V26.077H25.321V27.817ZM26.9039 27.244C26.9039 27.712 27.1559 28.036 27.5609 28.036C27.9569 28.036 28.0799 27.736 28.0799 27.736H28.0859C28.0859 27.736 28.0799 27.775 28.0799 27.832C28.0799 27.943 28.1339 28 28.2599 28H28.4699V27.823H28.3439C28.3019 27.823 28.2779 27.802 28.2779 27.757V26.074C28.2779 25.945 28.2239 25.891 28.0949 25.891H27.8819V26.068H28.0079C28.0499 26.068 28.0739 26.092 28.0739 26.134V26.623C28.0739 26.686 28.0799 26.737 28.0799 26.737H28.0739C28.0739 26.737 27.9479 26.455 27.5819 26.455C27.1859 26.455 26.9039 26.767 26.9039 27.244ZM27.5909 27.853C27.3089 27.853 27.1139 27.616 27.1139 27.244C27.1139 26.863 27.3329 26.638 27.5999 26.638C27.9239 26.638 28.0799 26.938 28.0799 27.244C28.0799 27.673 27.8429 27.853 27.5909 27.853ZM28.8535 28H29.0845V27.76H28.8535V28ZM30.4564 28H31.0594V27.814H30.8584V26.077H31.0594V25.891H30.4564V26.077H30.6544V27.814H30.4564V28ZM31.5633 28H31.7673V27.277C31.7673 27.205 31.7733 27.136 31.7913 27.073C31.8603 26.824 32.0823 26.647 32.3403 26.647C32.6313 26.647 32.6673 26.857 32.6673 27.094V27.817C32.6673 27.946 32.7213 28 32.8503 28H33.0633V27.823H32.9373C32.8953 27.823 32.8713 27.802 32.8713 27.757V27.04C32.8713 26.668 32.7393 26.455 32.3643 26.455C32.0103 26.455 31.8183 26.698 31.7643 26.836H31.7583C31.7583 26.836 31.7643 26.788 31.7643 26.728V26.659C31.7643 26.545 31.7073 26.491 31.5813 26.491H31.3713V26.668H31.4973C31.5393 26.668 31.5633 26.692 31.5633 26.734V28ZM33.4965 28H33.7005V26.662H34.0845V26.491H33.7005V26.437C33.7005 26.101 33.9225 26.059 34.0365 26.059C34.0815 26.059 34.1085 26.065 34.1085 26.065V25.882C34.1085 25.882 34.0725 25.876 34.0155 25.876C33.8475 25.876 33.4965 25.939 33.4965 26.437V26.491H33.3075V26.662H33.4965V28ZM34.313 27.589C34.313 27.889 34.574 28.036 34.826 28.036C35.204 28.036 35.33 27.709 35.327 27.709H35.333C35.333 27.709 35.33 27.754 35.33 27.82C35.33 27.943 35.381 28 35.51 28H35.717V27.823H35.591C35.549 27.823 35.525 27.802 35.525 27.757V27.034C35.525 26.71 35.411 26.455 34.934 26.455C34.802 26.455 34.442 26.5 34.442 26.71V26.854H34.637V26.758C34.637 26.647 34.856 26.626 34.931 26.626C35.207 26.626 35.321 26.737 35.321 27.052V27.07H35.237C34.976 27.07 34.313 27.088 34.313 27.589ZM34.523 27.577C34.523 27.238 34.997 27.232 35.234 27.232H35.321V27.301C35.321 27.562 35.147 27.862 34.859 27.862C34.634 27.862 34.523 27.718 34.523 27.577ZM36.1469 28H36.3509V27.277C36.3509 27.205 36.3569 27.136 36.3749 27.073C36.4439 26.824 36.6659 26.647 36.9239 26.647C37.2149 26.647 37.2509 26.857 37.2509 27.094V27.817C37.2509 27.946 37.3049 28 37.4339 28H37.6469V27.823H37.5209C37.4789 27.823 37.4549 27.802 37.4549 27.757V27.04C37.4549 26.668 37.3229 26.455 36.9479 26.455C36.5939 26.455 36.4019 26.698 36.3479 26.836H36.3419C36.3419 26.836 36.3479 26.788 36.3479 26.728V26.659C36.3479 26.545 36.2909 26.491 36.1649 26.491H35.9549V26.668H36.0809C36.1229 26.668 36.1469 26.692 36.1469 26.734V28ZM38.0951 27.451C38.0951 27.955 38.4461 28.012 38.6201 28.012C38.6711 28.012 38.7071 28.006 38.7071 28.006V27.823C38.7071 27.823 38.6801 27.829 38.6381 27.829C38.5241 27.829 38.2991 27.784 38.2991 27.43V26.662H38.6771V26.491H38.2991V26.074H38.0981V26.491H37.8971V26.662H38.0951V27.451ZM39.196 26.149H39.394V25.891H39.196V26.149ZM39.202 27.817C39.202 27.946 39.256 28 39.385 28H39.598V27.823H39.472C39.43 27.823 39.406 27.802 39.406 27.757V26.674C39.406 26.545 39.352 26.491 39.223 26.491H39.01V26.668H39.136C39.178 26.668 39.202 26.692 39.202 26.734V27.817ZM40.0419 27.817C40.0419 27.946 40.0959 28 40.2249 28H40.4379V27.823H40.3119C40.2699 27.823 40.2459 27.802 40.2459 27.757V26.074C40.2459 25.945 40.1919 25.891 40.0629 25.891H39.8499V26.068H39.9759C40.0179 26.068 40.0419 26.092 40.0419 26.134V27.817ZM41.5826 28H41.6816C41.8316 28 41.8736 27.97 41.9276 27.826L42.1136 27.328H42.9506L43.1336 27.826C43.1876 27.97 43.2326 28 43.3826 28H43.4786V27.814H43.4426C43.3856 27.814 43.3556 27.805 43.3346 27.748L42.6446 25.891H42.4196L41.7296 27.748C41.7086 27.805 41.6756 27.814 41.6216 27.814H41.5826V28ZM42.1706 27.145L42.4466 26.392C42.4826 26.293 42.5276 26.119 42.5276 26.119H42.5336C42.5336 26.119 42.5786 26.293 42.6146 26.392L42.8936 27.145H42.1706ZM43.8843 28H44.0883V27.364C44.0883 27.268 44.1003 27.166 44.1303 27.07C44.1963 26.848 44.3553 26.68 44.5683 26.68C44.6073 26.68 44.6433 26.686 44.6433 26.686V26.485C44.6433 26.485 44.6043 26.476 44.5623 26.476C44.3253 26.476 44.1573 26.65 44.0853 26.878H44.0793C44.0793 26.878 44.0853 26.827 44.0853 26.764V26.662C44.0853 26.542 44.0283 26.491 43.9023 26.491H43.6923V26.668H43.8183C43.8603 26.668 43.8843 26.692 43.8843 26.734V28ZM45.0942 27.451C45.0942 27.955 45.4452 28.012 45.6192 28.012C45.6702 28.012 45.7062 28.006 45.7062 28.006V27.823C45.7062 27.823 45.6792 27.829 45.6372 27.829C45.5232 27.829 45.2982 27.784 45.2982 27.43V26.662H45.6762V26.491H45.2982V26.074H45.0972V26.491H44.8962V26.662H45.0942V27.451ZM46.0158 27.247C46.0158 27.712 46.3578 28.036 46.8048 28.036C47.1468 28.036 47.3658 27.82 47.3658 27.82L47.2668 27.667C47.2668 27.667 47.0898 27.853 46.8138 27.853C46.5018 27.853 46.2348 27.634 46.2288 27.253H47.3868C47.3868 27.253 47.3928 27.187 47.3928 27.151C47.3928 26.776 47.1768 26.455 46.7598 26.455C46.3548 26.455 46.0158 26.752 46.0158 27.247ZM46.2378 27.091C46.2888 26.788 46.5078 26.626 46.7568 26.626C46.9788 26.626 47.1708 26.779 47.1828 27.091H46.2378ZM48.6868 27.247C48.6868 27.712 49.0288 28.036 49.4758 28.036C49.8178 28.036 50.0368 27.82 50.0368 27.82L49.9378 27.667C49.9378 27.667 49.7608 27.853 49.4848 27.853C49.1728 27.853 48.9058 27.634 48.8998 27.253H50.0578C50.0578 27.253 50.0638 27.187 50.0638 27.151C50.0638 26.776 49.8478 26.455 49.4308 26.455C49.0258 26.455 48.6868 26.752 48.6868 27.247ZM48.9088 27.091C48.9598 26.788 49.1788 26.626 49.4278 26.626C49.6498 26.626 49.8418 26.779 49.8538 27.091H48.9088ZM51.3037 28H51.5047C51.6337 28 51.6787 27.946 51.6877 27.817L51.7867 26.536C51.7957 26.422 51.7957 26.236 51.7957 26.236H51.8017C51.8017 26.236 51.8647 26.431 51.9127 26.536L52.4107 27.607H52.5997L53.1007 26.536C53.1517 26.428 53.2087 26.242 53.2087 26.242H53.2147C53.2147 26.242 53.2147 26.422 53.2237 26.536L53.3227 27.817C53.3317 27.946 53.3767 28 53.5057 28H53.7097V27.814H53.5957C53.5537 27.814 53.5327 27.793 53.5297 27.748L53.3827 25.891H53.1697L52.6117 27.118C52.5637 27.226 52.5097 27.367 52.5097 27.367H52.5037C52.5037 27.367 52.4497 27.226 52.3987 27.118L51.8407 25.891H51.6277L51.4807 27.748C51.4777 27.793 51.4567 27.814 51.4147 27.814H51.3037V28ZM53.9969 27.589C53.9969 27.889 54.2579 28.036 54.5099 28.036C54.8879 28.036 55.0139 27.709 55.0109 27.709H55.0169C55.0169 27.709 55.0139 27.754 55.0139 27.82C55.0139 27.943 55.0649 28 55.1939 28H55.4009V27.823H55.2749C55.2329 27.823 55.2089 27.802 55.2089 27.757V27.034C55.2089 26.71 55.0949 26.455 54.6179 26.455C54.4859 26.455 54.1259 26.5 54.1259 26.71V26.854H54.3209V26.758C54.3209 26.647 54.5399 26.626 54.6149 26.626C54.8909 26.626 55.0049 26.737 55.0049 27.052V27.07H54.9209C54.6599 27.07 53.9969 27.088 53.9969 27.589ZM54.2069 27.577C54.2069 27.238 54.6809 27.232 54.9179 27.232H55.0049V27.301C55.0049 27.562 54.8309 27.862 54.5429 27.862C54.3179 27.862 54.2069 27.718 54.2069 27.577ZM55.8308 28H56.0348V27.277C56.0348 27.205 56.0408 27.136 56.0588 27.073C56.1278 26.824 56.3498 26.647 56.6078 26.647C56.8988 26.647 56.9348 26.857 56.9348 27.094V27.817C56.9348 27.946 56.9888 28 57.1178 28H57.3308V27.823H57.2048C57.1628 27.823 57.1388 27.802 57.1388 27.757V27.04C57.1388 26.668 57.0068 26.455 56.6318 26.455C56.2778 26.455 56.0858 26.698 56.0318 26.836H56.0258C56.0258 26.836 56.0318 26.788 56.0318 26.728V26.659C56.0318 26.545 55.9748 26.491 55.8488 26.491H55.6388V26.668H55.7648C55.8068 26.668 55.8308 26.692 55.8308 26.734V28ZM57.752 28H57.956V27.277C57.956 27.205 57.962 27.136 57.98 27.076C58.049 26.824 58.271 26.647 58.526 26.647C58.82 26.647 58.856 26.857 58.856 27.094V27.817C58.856 27.946 58.91 28 59.039 28H59.252V27.823H59.126C59.084 27.823 59.06 27.802 59.06 27.757V27.04C59.06 26.668 58.928 26.455 58.553 26.455C58.214 26.455 58.013 26.686 57.956 26.83H57.95C57.95 26.83 57.956 26.776 57.956 26.707V26.068C57.956 25.945 57.902 25.891 57.773 25.891H57.56V26.068H57.686C57.728 26.068 57.752 26.092 57.752 26.134V28ZM59.5414 27.589C59.5414 27.889 59.8024 28.036 60.0544 28.036C60.4324 28.036 60.5584 27.709 60.5554 27.709H60.5614C60.5614 27.709 60.5584 27.754 60.5584 27.82C60.5584 27.943 60.6094 28 60.7384 28H60.9454V27.823H60.8194C60.7774 27.823 60.7534 27.802 60.7534 27.757V27.034C60.7534 26.71 60.6394 26.455 60.1624 26.455C60.0304 26.455 59.6704 26.5 59.6704 26.71V26.854H59.8654V26.758C59.8654 26.647 60.0844 26.626 60.1594 26.626C60.4354 26.626 60.5494 26.737 60.5494 27.052V27.07H60.4654C60.2044 27.07 59.5414 27.088 59.5414 27.589ZM59.7514 27.577C59.7514 27.238 60.2254 27.232 60.4624 27.232H60.5494V27.301C60.5494 27.562 60.3754 27.862 60.0874 27.862C59.8624 27.862 59.7514 27.718 59.7514 27.577ZM61.2013 27.772C61.2013 27.772 61.3873 28.036 61.7803 28.036C62.0803 28.036 62.3083 27.865 62.3083 27.613C62.3083 27.112 61.4623 27.19 61.4623 26.851C61.4623 26.704 61.5883 26.632 61.7983 26.632C61.8973 26.632 62.0593 26.674 62.0593 26.785V26.857H62.2513V26.728C62.2513 26.515 61.9453 26.455 61.7923 26.455C61.4893 26.455 61.2553 26.59 61.2553 26.863C61.2553 27.349 62.1013 27.289 62.1013 27.619C62.1013 27.778 61.9513 27.859 61.7833 27.859C61.4863 27.859 61.3183 27.631 61.3183 27.631L61.2013 27.772Z" fill="black"/>
</svg>
