<svg width="86" height="29" viewBox="0 0 86 29" fill="none" xmlns="http://www.w3.org/2000/svg">
<path d="M35.0156 5.80469C31.8281 8.99219 29.2188 11.6328 29.2188 11.6641C29.2188 11.6953 29.5938 11.7188 30.0625 11.7188H30.8984L35.8984 6.71875L40.8984 1.71875L41.0547 1.91406C41.1484 2.01562 42.1875 3.09375 43.3672 4.3125C47.0469 8.10938 47.5078 8.59375 49.0312 10.1719L50.5078 11.7188H51.3516C51.8125 11.7188 52.1875 11.6953 52.1875 11.6641C52.1875 11.6016 51.5391 10.9062 49.7344 9.0625C48.9141 8.22656 47.0078 6.27344 45.5078 4.72656C41.4844 0.578125 40.9141 0 40.8594 0C40.8359 0 38.2109 2.60938 35.0156 5.80469Z" fill="black"/>
<path d="M40.7656 6.08594C40.7578 6.125 39.7031 7.22656 38.4297 8.53125C37.1641 9.82812 35.8359 11.1953 35.4844 11.5625L34.8516 12.2266L35.1797 12.25C35.5 12.2734 35.5234 12.2578 36.0469 11.7031C36.3359 11.3906 37.1797 10.5 37.9219 9.73437C38.6562 8.96094 39.3125 8.27344 39.375 8.20312C39.4375 8.13281 39.8125 7.74219 40.2109 7.32812L40.9297 6.59375L43.7656 9.42969L46.6016 12.2656H46.9531H47.3047L46.4453 11.4297C45.9766 10.9766 44.5469 9.57031 43.2812 8.3125C42.0078 7.04687 40.9297 6.01562 40.8828 6.01562C40.8359 6.01562 40.7812 6.04687 40.7656 6.08594Z" fill="black"/>
<path d="M0 6.78907V7.18751H0.273438H0.546875V9.63282C0.546875 11.625 0.570313 12.1094 0.65625 12.2344C0.757813 12.375 0.875 12.3828 2.375 12.3828C4.27344 12.3828 4.23438 12.3984 4.28125 11.6016L4.3125 11.0938H3.92188C3.53125 11.0938 3.52344 11.1016 3.5 11.3438L3.47656 11.6016L2.44531 11.625L1.40625 11.6484V10.7031V9.76563H2.42188H3.4375V9.41407V9.06251H2.42188H1.40625V8.12501V7.17969L2.32813 7.20313L3.24219 7.22657L3.26563 7.47657C3.28906 7.72657 3.29688 7.73438 3.67969 7.73438H4.0625V7.27344C4.0625 6.93751 4.02344 6.76563 3.91406 6.63282C3.76563 6.44532 3.75 6.44532 1.88281 6.42188L0 6.39844V6.78907Z" fill="black"/>
<path d="M18.5938 6.75C18.5938 7.05469 18.6172 7.10938 18.7422 7.10938C19.1562 7.10938 19.1406 7.01562 19.1406 9.6875C19.1406 11.8047 19.1562 12.1797 19.2578 12.2656C19.3203 12.3203 19.625 12.3828 19.9219 12.4062L20.4688 12.4453V12.0781C20.4688 11.7734 20.4453 11.7188 20.3203 11.7188C19.9062 11.7188 19.9219 11.8125 19.9219 9.1875C19.9219 7.28906 19.8984 6.71875 19.8203 6.60938C19.7422 6.5 19.5703 6.45312 19.1562 6.42188L18.5938 6.38281V6.75Z" fill="black"/>
<path d="M5.89844 8.14063C5.28125 8.36719 5.03125 8.74219 5.10156 9.34376C5.15625 9.85157 5.48438 10.1563 6.34375 10.5234C7.15625 10.8672 7.34375 11.0156 7.34375 11.3281C7.34375 11.9219 6.17969 11.9609 5.5625 11.3828L5.375 11.2109L5.14844 11.4844L4.91406 11.7578L5.13281 11.9375C5.66406 12.3906 6.53906 12.5938 7.16406 12.4297C7.75 12.2734 8.20312 11.7578 8.20312 11.25C8.20312 10.6953 7.83594 10.3281 6.85938 9.91407C6.11719 9.60157 5.85938 9.39844 5.85938 9.13282C5.85938 8.60938 7.1875 8.51563 7.3125 9.03126C7.33594 9.13282 7.42188 9.21876 7.49219 9.22657C7.5625 9.22657 7.71094 9.24219 7.83594 9.25001C8.02344 9.25782 8.04688 9.23438 8.04688 9.00782C8.04688 8.38282 7.65625 8.10157 6.71875 8.07032C6.39844 8.06251 6.03125 8.09376 5.89844 8.14063Z" fill="black"/>
<path d="M10.3438 8.17189C9.875 8.33595 9.41406 8.76564 9.17188 9.26564C9 9.62501 8.96094 9.8047 8.96094 10.2656C8.96875 11.2031 9.35156 11.8594 10.1094 12.2266C10.9063 12.6172 11.8906 12.5391 12.5938 12.0469C12.9297 11.8047 12.9297 11.7969 12.7734 11.4844C12.6484 11.25 12.5469 11.1953 12.4688 11.3203C12.3516 11.5 11.6563 11.7422 11.2422 11.7344C10.3516 11.7344 9.76563 11.1406 9.76563 10.25C9.77344 9.6172 10.1406 9.02345 10.6484 8.83595C10.9453 8.71876 11.5078 8.72657 11.7578 8.84376C11.8828 8.89845 11.9766 9.02345 12.0078 9.15626C12.0469 9.35939 12.0781 9.37501 12.3906 9.37501H12.7344V9.01564C12.7344 8.71876 12.6953 8.6172 12.5 8.43751C12.0938 8.06251 11.0313 7.9297 10.3438 8.17189Z" fill="black"/>
<path d="M14.9219 8.1797C14.3828 8.37501 13.7891 9.01563 13.625 9.57032C13.3828 10.4219 13.5859 11.2422 14.1953 11.8438C14.6641 12.2969 15.0859 12.4609 15.8203 12.4531C16.5703 12.4531 17.0625 12.2422 17.5313 11.7188C17.9375 11.2656 18.0703 10.9219 18.0703 10.2734C18.0781 9.38282 17.6563 8.66407 16.8984 8.28126C16.4141 8.03126 15.4531 7.98438 14.9219 8.1797ZM16.4688 8.89845C16.9922 9.16407 17.2656 9.64063 17.2656 10.2734C17.2656 10.7422 17.1172 11.0781 16.7734 11.3828C15.7891 12.2422 14.375 11.6016 14.375 10.2891C14.375 10.0469 14.4141 9.75782 14.4609 9.63282C14.5703 9.34376 14.9063 8.9922 15.1953 8.85938C15.5391 8.71095 16.1328 8.72657 16.4688 8.89845Z" fill="black"/>
<path d="M21.9922 8.16408C21.5859 8.31251 21.4063 8.53908 21.4063 8.91408V9.21876H21.7969C22.1641 9.21876 22.1875 9.20314 22.1875 9.02345C22.1875 8.76564 22.4844 8.64845 22.9922 8.69533C23.4688 8.73439 23.7422 8.98439 23.8047 9.4297L23.8438 9.7422L23.1172 9.78908C22.2422 9.83595 21.75 10 21.4219 10.336C20.9531 10.8203 20.9531 11.6485 21.4297 12.0781C22.0703 12.6641 23.0156 12.6172 23.6328 11.9531L23.8672 11.7031L23.9063 11.961C23.9531 12.2891 24.1953 12.4219 24.75 12.4219H25.1563V12.0703C25.1563 11.7578 25.1406 11.7188 24.9766 11.7188C24.6406 11.7188 24.6094 11.6016 24.6094 10.3594C24.6094 9.38283 24.5781 9.12501 24.4609 8.8672C24.2891 8.4922 24.0391 8.25783 23.6797 8.13283C23.3125 8.01564 22.375 8.03126 21.9922 8.16408ZM23.8281 10.4766C23.8281 10.7891 23.6406 11.2656 23.4375 11.4844C22.8906 12.0703 21.875 11.8594 21.875 11.1563C21.875 10.6719 22.5078 10.3281 23.4219 10.3203C23.7891 10.3125 23.8281 10.3281 23.8281 10.4766Z" fill="black"/>
<path d="M0.15625 15.2266V16.0937H0.546875H0.9375V19.375V22.6562H1.95312H2.96875V21.375V20.0937L3.92969 20.0625C5.11719 20.0156 5.52344 19.8672 6.08594 19.25C7.36719 17.8516 7.00781 15.4609 5.40625 14.6719L4.88281 14.4141L2.52344 14.3906L0.15625 14.3672V15.2266ZM4.21094 16.1953C4.5625 16.375 4.72656 16.6875 4.71875 17.1719C4.71875 18.0234 4.35156 18.3594 3.4375 18.3594H2.96875V17.2266V16.0937H3.5C3.78906 16.0937 4.10938 16.1406 4.21094 16.1953Z" fill="black"/>
<path d="M19.6875 15.1953V16.0234L20.5313 16L21.3672 15.9766L21.3906 15.1719L21.4141 14.375H20.5469H19.6875V15.1953Z" fill="black"/>
<path d="M38.4062 14.5391C38.2031 14.6953 38.2031 14.7109 38.2031 15.75V16.7969H39.0625H39.9219V16.5391C39.9219 16.1875 40.0391 16.0937 40.4844 16.0937H40.8594V19.375V22.6641L41.8984 22.6406L42.9297 22.6172L42.9531 19.3516L42.9688 16.0937H43.3438C43.7891 16.0937 43.9062 16.1875 43.9062 16.5391V16.7969H44.8047H45.7031V15.9531C45.7031 14.9375 45.6172 14.5859 45.3438 14.4687C45.2109 14.3984 44.1953 14.375 41.8828 14.375C38.6953 14.375 38.6094 14.3828 38.4062 14.5391Z" fill="black"/>
<path d="M53.0469 15.1953V16.0156H53.8672H54.6875V15.1953V14.375H53.8672H53.0469V15.1953Z" fill="black"/>
<path d="M70.3906 15.1953V16.0156H71.2109H72.0312V15.1953V14.375H71.2109H70.3906V15.1953Z" fill="black"/>
<path d="M14.7656 15.8984V16.7187H14.375H13.9766L14 17.4766L14.0234 18.2422H14.3438H14.6719L14.7031 19.6484C14.7344 20.6953 14.7734 21.125 14.8672 21.3281C15.2578 22.2109 16.1094 22.6562 17.3984 22.6562H18.0469V21.7969V20.9375H17.7344C17.3359 20.9375 16.9141 20.7656 16.8047 20.5625C16.7578 20.4687 16.7188 19.9453 16.7188 19.3047V18.2187L17.3438 18.2422L17.9688 18.2656V17.4922V16.7187H17.3438H16.7188V15.8984V15.0781H15.7422H14.7656V15.8984Z" fill="black"/>
<path d="M23.6719 15.8984V16.7187H23.2812H22.8828L22.9062 17.4766L22.9297 18.2422L23.2031 18.25C23.3516 18.2578 23.5234 18.2656 23.5781 18.2734C23.6484 18.2812 23.6719 18.6094 23.6719 19.625C23.6797 21.4922 23.8438 21.875 24.8203 22.3594C25.2891 22.5859 25.4297 22.6172 26.1484 22.6406L26.9531 22.6719V21.8203V20.9609L26.5312 20.9141C26.0547 20.8672 25.8281 20.75 25.7109 20.4922C25.6641 20.3906 25.625 19.8359 25.625 19.2422V18.1875L26.2344 18.2109L26.8359 18.2422L26.8594 17.4766L26.8828 16.7187H26.25H25.625V15.8984V15.0781H24.6484H23.6719V15.8984Z" fill="black"/>
<path d="M9.4922 16.6719C8.97657 16.8359 8.53126 17.0938 8.20314 17.4219C6.90626 18.7188 7.12501 21.1484 8.62501 22.1875C9.62501 22.8672 11.1953 22.9297 12.3828 22.3281C12.6016 22.2188 12.8594 22.0547 12.9609 21.9766L13.1484 21.8203L12.7656 21.1875C12.5547 20.8359 12.3516 20.5469 12.3203 20.5469C12.2813 20.5469 12.1563 20.6094 12.0469 20.6953C11.3672 21.1641 10.4063 21.2266 9.88282 20.8281C9.64845 20.6406 9.37501 20.2266 9.37501 20.0391C9.37501 20.0156 10.2188 20 11.2422 20H13.1094L13.1641 19.6875C13.2422 19.2109 13.0703 18.375 12.7813 17.8438C12.4688 17.2813 11.9453 16.8594 11.3281 16.6875C10.8047 16.5391 9.9297 16.5313 9.4922 16.6719ZM10.7266 18.1406C10.9609 18.2656 11.0859 18.4453 11.0938 18.6484C11.0938 18.8203 11.0703 18.8281 10.2734 18.8281C9.82032 18.8281 9.45314 18.8125 9.45314 18.7891C9.45314 18.7578 9.50782 18.6406 9.57032 18.5156C9.78126 18.1094 10.3359 17.9297 10.7266 18.1406Z" fill="black"/>
<path d="M30.1562 16.6719C28.5312 17.1094 27.5625 18.5547 27.8125 20.1406C27.9766 21.1641 28.5469 21.9219 29.5 22.3906C30.0312 22.6563 30.1562 22.6875 30.8828 22.7188C31.7266 22.7578 32.2891 22.6484 32.8906 22.3438C33.3984 22.0859 33.8906 21.5781 34.1562 21.0313C34.3984 20.5391 34.4141 20.4688 34.4141 19.6484C34.4141 18.8672 34.3906 18.75 34.1953 18.3438C33.7969 17.5313 33.0234 16.9219 32.0703 16.6719C31.5859 16.5391 30.625 16.5391 30.1562 16.6719ZM31.7187 18.375C32.3281 18.6875 32.6172 19.3672 32.4297 20.0625C32.2578 20.6953 31.7422 21.0938 31.0937 21.0938C29.9453 21.0938 29.3437 19.6016 30.1172 18.6875C30.5312 18.1953 31.1328 18.0781 31.7187 18.375Z" fill="black"/>
<path d="M47.7109 16.6406C46.8672 16.8594 46.0078 17.6094 45.7109 18.3984C45.1016 20.0313 45.75 21.7422 47.25 22.4453C48.1484 22.8672 49.4844 22.8359 50.4219 22.375C50.6484 22.2656 50.9375 22.0938 51.0547 22L51.2812 21.8203L50.9062 21.1797C50.7031 20.8359 50.5156 20.5469 50.5 20.5469C50.4844 20.5469 50.2578 20.6563 49.9922 20.7969C49.0234 21.3047 48.0469 21.1328 47.6719 20.3906L47.5 20.0391L49.375 20.0156L51.25 20L51.2969 19.7969C51.375 19.4922 51.2656 18.6406 51.0859 18.1719C50.8828 17.6094 50.4062 17.0859 49.8672 16.8203C49.4922 16.6406 49.3047 16.6016 48.7187 16.5859C48.3281 16.5781 47.875 16.6016 47.7109 16.6406ZM48.9141 18.125C49.0625 18.2031 49.2969 18.5859 49.2969 18.75C49.2969 18.7969 48.9844 18.8281 48.4375 18.8281C47.9687 18.8281 47.5781 18.8047 47.5781 18.7813C47.5781 18.625 47.9297 18.2031 48.1094 18.1328C48.3906 18.0313 48.7266 18.0313 48.9141 18.125Z" fill="black"/>
<path d="M64.8359 16.7031C63.6406 17.1016 62.8984 18.1016 62.8281 19.4297C62.7656 20.5547 63.2031 21.5234 64.0469 22.1484C65.1953 22.9922 67.2422 22.9141 68.4219 21.9687L68.6094 21.8281L68.2344 21.2031C68.0312 20.8672 67.8516 20.5703 67.8359 20.5547C67.8281 20.5391 67.5937 20.6406 67.3281 20.7891C66.8906 21.0234 66.7656 21.0547 66.2344 21.0547C65.5703 21.0547 65.3437 20.9453 65.0234 20.4687C64.6953 19.9922 64.6562 20 66.7109 20H68.5781L68.625 19.6641C68.6875 19.25 68.5703 18.5469 68.3672 18.0781C68.1016 17.4922 67.7734 17.1406 67.2109 16.8594C66.7656 16.6406 66.6016 16.6016 65.9844 16.5859C65.4531 16.5703 65.1641 16.6016 64.8359 16.7031ZM66.3359 18.2734C66.4609 18.3984 66.5625 18.5781 66.5625 18.6641C66.5625 18.8203 66.5234 18.8281 65.7422 18.8281C65.2266 18.8281 64.9219 18.7969 64.9219 18.75C64.9219 18.6016 65.1797 18.2734 65.3828 18.1641C65.7266 17.9766 66.0781 18.0156 66.3359 18.2734Z" fill="black"/>
<path d="M77.5156 16.7109C77.0312 16.875 76.625 17.2422 76.3672 17.7344L76.1797 18.0859L76.1719 17.5703C76.1719 17.1406 76.1406 17.0312 75.9922 16.8906C75.8203 16.7344 75.7344 16.7188 74.7031 16.7188H73.5938V17.5312V18.3516L73.9297 18.375L74.2578 18.3984L74.2812 20.5234L74.2969 22.6562H75.2734C76 22.6562 76.25 22.6328 76.25 22.5547C76.25 22.5078 76.2578 21.8594 76.2734 21.1328C76.2969 20.0938 76.3281 19.7344 76.4375 19.4922C76.7031 18.8672 77.0859 18.6094 77.8594 18.5391L78.3672 18.4922L78.3438 17.5469C78.3203 16.6016 78.3203 16.6016 78.125 16.5859C78.0156 16.5703 77.7422 16.6328 77.5156 16.7109Z" fill="black"/>
<path d="M80.4609 16.6641C79.6172 16.9062 79.3047 17.2734 79.2344 18.0859L79.1953 18.5938H80.1484H81.0938V18.3984C81.0938 18.1719 81.2969 18.0469 81.6641 18.0469C82.0469 18.0469 82.3438 18.3047 82.3438 18.6406V18.9062H81.9609C80.9141 18.9062 79.5547 19.375 79.1875 19.8672C78.8203 20.3672 78.75 20.8125 78.9453 21.4609C79.1797 22.2578 79.8906 22.7266 80.8438 22.7344C81.5 22.7344 81.8125 22.625 82.25 22.2344L82.5547 21.9531L82.6094 22.1875C82.6797 22.5547 83.0078 22.6562 84.1406 22.6562H85.0781V21.8047V20.9453L84.75 20.9219L84.4141 20.8984L84.375 19.5703C84.3359 18.3984 84.3125 18.1953 84.1484 17.8281C83.9297 17.3438 83.4922 16.9375 82.9766 16.75C82.5 16.5781 80.9531 16.5234 80.4609 16.6641ZM82.3906 20.3281C82.3203 20.6641 82.1484 20.9141 81.8516 21.0938C81.3672 21.3906 80.8281 21.2109 80.875 20.7656C80.9141 20.3672 81.3984 20.1094 82.1406 20.0859C82.4375 20.0781 82.4375 20.0781 82.3906 20.3281Z" fill="black"/>
<path d="M18.8281 17.5312V18.3516L19.1641 18.375L19.4922 18.3984L19.5312 20.2734C19.5547 21.5781 19.6016 22.2031 19.6719 22.3203C19.8125 22.5781 20.2656 22.6641 21.3047 22.6406L22.2266 22.6172L22.25 21.7812L22.2734 20.9453L21.9375 20.9219L21.6016 20.8984L21.5625 19.0078C21.5156 16.5625 21.6172 16.7187 19.9844 16.7187H18.8281V17.5312Z" fill="black"/>
<path d="M52.1875 17.5391V18.3594H52.4922C52.6953 18.3594 52.8125 18.3984 52.8438 18.4844C52.8672 18.5547 52.8906 19.3984 52.8906 20.3594C52.8906 21.4687 52.9219 22.1797 52.9766 22.2812C53.125 22.5625 53.5156 22.6562 54.5703 22.6562H55.5469V21.7969V20.9375H55.2422C55.0391 20.9375 54.9219 20.8984 54.8906 20.8125C54.8672 20.7422 54.8438 19.8828 54.8438 18.8984V17.1016L54.6484 16.9141C54.4688 16.7266 54.4297 16.7187 53.3203 16.7187H52.1875V17.5391Z" fill="black"/>
<path d="M56.25 17.5391V18.3594H56.6719H57.0859L57.4922 18.9687C57.7109 19.3047 57.8906 19.625 57.8906 19.6875C57.8906 19.7422 57.5078 20.4141 57.0313 21.1719C56.5625 21.9297 56.1719 22.5781 56.1719 22.6094C56.1719 22.6328 56.6563 22.6484 57.2422 22.6406L58.3125 22.6172L58.7578 21.8516C59.0938 21.2734 59.2109 21.1172 59.25 21.2266C59.2813 21.3047 59.4688 21.6562 59.6719 22.0078L60.0391 22.6562H61.1172C61.7031 22.6562 62.1875 22.6406 62.1875 22.6172C62.1875 22.6016 61.7813 21.9297 61.2891 21.1328L60.3906 19.6875L60.8203 19.0234L61.25 18.3594H61.6797H62.1094V17.5391V16.7187H61.1406C59.9766 16.7187 59.9375 16.7422 59.5 17.6484L59.1875 18.2734L58.8125 17.5781C58.6016 17.1953 58.3672 16.8437 58.2813 16.7969C58.2031 16.7578 57.7109 16.7187 57.1953 16.7187H56.25V17.5391Z" fill="black"/>
<path d="M69.5312 17.5391V18.3594H69.7891C69.9297 18.3594 70.0859 18.3984 70.1406 18.4531C70.2109 18.5234 70.2344 19.0547 70.2344 20.3594C70.2344 22.1719 70.2344 22.1797 70.4219 22.3984C70.6094 22.6172 70.6094 22.6172 71.75 22.6406L72.8906 22.6719V21.8125V20.9453L72.5625 20.9219L72.2266 20.8984L72.1875 18.9609C72.1406 16.5312 72.2656 16.7188 70.6563 16.7188H69.5312V17.5391Z" fill="black"/>
<path d="M0.078125 25.5781V25.9688H10.8203H21.5625V25.5781V25.1875H10.8203H0.078125V25.5781Z" fill="black"/>
<path d="M0.078125 26.9453V27.1406H10.8203H21.5625V26.9453V26.75H10.8203H0.078125V26.9453Z" fill="black"/>
<path d="M64.0781 25.5781V25.9688H74.8203H85.5625V25.5781V25.1875H74.8203H64.0781V25.5781Z" fill="black"/>
<path d="M64.0781 26.9453V27.1406H74.8203H85.5625V26.9453V26.75H74.8203H64.0781V26.9453Z" fill="black"/>
<path d="M24.3991 27.0045C24.3991 27.1335 24.4531 27.1875 24.5821 27.1875H25.4941C25.6231 27.1875 25.6771 27.1335 25.6771 27.0045V26.7945H25.4821V26.9355C25.4821 26.9805 25.4581 27.0015 25.4161 27.0015H24.6751C24.6331 27.0015 24.6091 26.9805 24.6091 26.9355V26.2185H25.4011V26.0325H24.6091V25.2645H25.3291C25.3711 25.2645 25.3951 25.2855 25.3951 25.3305V25.4715H25.5931V25.2615C25.5931 25.1325 25.5391 25.0785 25.4101 25.0785H24.2041V25.2645H24.3991V27.0045ZM25.982 26.4315C25.982 26.8995 26.234 27.2235 26.639 27.2235C27.035 27.2235 27.158 26.9235 27.158 26.9235H27.164C27.164 26.9235 27.158 26.9625 27.158 27.0195C27.158 27.1305 27.212 27.1875 27.338 27.1875H27.548V27.0105H27.422C27.38 27.0105 27.356 26.9895 27.356 26.9445V25.2615C27.356 25.1325 27.302 25.0785 27.173 25.0785H26.96V25.2555H27.086C27.128 25.2555 27.152 25.2795 27.152 25.3215V25.8105C27.152 25.8735 27.158 25.9245 27.158 25.9245H27.152C27.152 25.9245 27.026 25.6425 26.66 25.6425C26.264 25.6425 25.982 25.9545 25.982 26.4315ZM26.669 27.0405C26.387 27.0405 26.192 26.8035 26.192 26.4315C26.192 26.0505 26.411 25.8255 26.678 25.8255C27.002 25.8255 27.158 26.1255 27.158 26.4315C27.158 26.8605 26.921 27.0405 26.669 27.0405ZM27.9316 27.1875H28.1626V26.9475H27.9316V27.1875ZM29.5346 27.1875H30.1376V27.0015H29.9366V25.2645H30.1376V25.0785H29.5346V25.2645H29.7326V27.0015H29.5346V27.1875ZM30.6415 27.1875H30.8455V26.4645C30.8455 26.3925 30.8515 26.3235 30.8695 26.2605C30.9385 26.0115 31.1605 25.8345 31.4185 25.8345C31.7095 25.8345 31.7455 26.0445 31.7455 26.2815V27.0045C31.7455 27.1335 31.7995 27.1875 31.9285 27.1875H32.1415V27.0105H32.0155C31.9735 27.0105 31.9495 26.9895 31.9495 26.9445V26.2275C31.9495 25.8555 31.8175 25.6425 31.4425 25.6425C31.0885 25.6425 30.8965 25.8855 30.8425 26.0235H30.8365C30.8365 26.0235 30.8425 25.9755 30.8425 25.9155V25.8465C30.8425 25.7325 30.7855 25.6785 30.6595 25.6785H30.4495V25.8555H30.5755C30.6175 25.8555 30.6415 25.8795 30.6415 25.9215V27.1875ZM32.5747 27.1875H32.7787V25.8495H33.1627V25.6785H32.7787V25.6245C32.7787 25.2885 33.0007 25.2465 33.1147 25.2465C33.1597 25.2465 33.1867 25.2525 33.1867 25.2525V25.0695C33.1867 25.0695 33.1507 25.0635 33.0937 25.0635C32.9257 25.0635 32.5747 25.1265 32.5747 25.6245V25.6785H32.3857V25.8495H32.5747V27.1875ZM33.3911 26.7765C33.3911 27.0765 33.6521 27.2235 33.9041 27.2235C34.2821 27.2235 34.4081 26.8965 34.4051 26.8965H34.4111C34.4111 26.8965 34.4081 26.9415 34.4081 27.0075C34.4081 27.1305 34.4591 27.1875 34.5881 27.1875H34.7951V27.0105H34.6691C34.6271 27.0105 34.6031 26.9895 34.6031 26.9445V26.2215C34.6031 25.8975 34.4891 25.6425 34.0121 25.6425C33.8801 25.6425 33.5201 25.6875 33.5201 25.8975V26.0415H33.7151V25.9455C33.7151 25.8345 33.9341 25.8135 34.0091 25.8135C34.2851 25.8135 34.3991 25.9245 34.3991 26.2395V26.2575H34.3151C34.0541 26.2575 33.3911 26.2755 33.3911 26.7765ZM33.6011 26.7645C33.6011 26.4255 34.0751 26.4195 34.3121 26.4195H34.3991V26.4885C34.3991 26.7495 34.2251 27.0495 33.9371 27.0495C33.7121 27.0495 33.6011 26.9055 33.6011 26.7645ZM35.225 27.1875H35.429V26.4645C35.429 26.3925 35.435 26.3235 35.453 26.2605C35.522 26.0115 35.744 25.8345 36.002 25.8345C36.293 25.8345 36.329 26.0445 36.329 26.2815V27.0045C36.329 27.1335 36.383 27.1875 36.512 27.1875H36.725V27.0105H36.599C36.557 27.0105 36.533 26.9895 36.533 26.9445V26.2275C36.533 25.8555 36.401 25.6425 36.026 25.6425C35.672 25.6425 35.48 25.8855 35.426 26.0235H35.42C35.42 26.0235 35.426 25.9755 35.426 25.9155V25.8465C35.426 25.7325 35.369 25.6785 35.243 25.6785H35.033V25.8555H35.159C35.201 25.8555 35.225 25.8795 35.225 25.9215V27.1875ZM37.1732 26.6385C37.1732 27.1425 37.5242 27.1995 37.6982 27.1995C37.7492 27.1995 37.7852 27.1935 37.7852 27.1935V27.0105C37.7852 27.0105 37.7582 27.0165 37.7162 27.0165C37.6022 27.0165 37.3772 26.9715 37.3772 26.6175V25.8495H37.7552V25.6785H37.3772V25.2615H37.1762V25.6785H36.9752V25.8495H37.1732V26.6385ZM38.2741 25.3365H38.4721V25.0785H38.2741V25.3365ZM38.2801 27.0045C38.2801 27.1335 38.3341 27.1875 38.4631 27.1875H38.6761V27.0105H38.5501C38.5081 27.0105 38.4841 26.9895 38.4841 26.9445V25.8615C38.4841 25.7325 38.4301 25.6785 38.3011 25.6785H38.0881V25.8555H38.2141C38.2561 25.8555 38.2801 25.8795 38.2801 25.9215V27.0045ZM39.12 27.0045C39.12 27.1335 39.174 27.1875 39.303 27.1875H39.516V27.0105H39.39C39.348 27.0105 39.324 26.9895 39.324 26.9445V25.2615C39.324 25.1325 39.27 25.0785 39.141 25.0785H38.928V25.2555H39.054C39.096 25.2555 39.12 25.2795 39.12 25.3215V27.0045ZM40.6608 27.1875H40.7598C40.9098 27.1875 40.9518 27.1575 41.0058 27.0135L41.1918 26.5155H42.0288L42.2118 27.0135C42.2658 27.1575 42.3108 27.1875 42.4608 27.1875H42.5568V27.0015H42.5208C42.4638 27.0015 42.4338 26.9925 42.4128 26.9355L41.7228 25.0785H41.4978L40.8078 26.9355C40.7868 26.9925 40.7538 27.0015 40.6998 27.0015H40.6608V27.1875ZM41.2488 26.3325L41.5248 25.5795C41.5608 25.4805 41.6058 25.3065 41.6058 25.3065H41.6118C41.6118 25.3065 41.6568 25.4805 41.6928 25.5795L41.9718 26.3325H41.2488ZM42.9624 27.1875H43.1664V26.5515C43.1664 26.4555 43.1784 26.3535 43.2084 26.2575C43.2744 26.0355 43.4334 25.8675 43.6464 25.8675C43.6854 25.8675 43.7214 25.8735 43.7214 25.8735V25.6725C43.7214 25.6725 43.6824 25.6635 43.6404 25.6635C43.4034 25.6635 43.2354 25.8375 43.1634 26.0655H43.1574C43.1574 26.0655 43.1634 26.0145 43.1634 25.9515V25.8495C43.1634 25.7295 43.1064 25.6785 42.9804 25.6785H42.7704V25.8555H42.8964C42.9384 25.8555 42.9624 25.8795 42.9624 25.9215V27.1875ZM44.1724 26.6385C44.1724 27.1425 44.5234 27.1995 44.6974 27.1995C44.7484 27.1995 44.7844 27.1935 44.7844 27.1935V27.0105C44.7844 27.0105 44.7574 27.0165 44.7154 27.0165C44.6014 27.0165 44.3764 26.9715 44.3764 26.6175V25.8495H44.7544V25.6785H44.3764V25.2615H44.1754V25.6785H43.9744V25.8495H44.1724V26.6385ZM45.0939 26.4345C45.0939 26.8995 45.4359 27.2235 45.8829 27.2235C46.2249 27.2235 46.4439 27.0075 46.4439 27.0075L46.3449 26.8545C46.3449 26.8545 46.1679 27.0405 45.8919 27.0405C45.5799 27.0405 45.3129 26.8215 45.3069 26.4405H46.4649C46.4649 26.4405 46.4709 26.3745 46.4709 26.3385C46.4709 25.9635 46.2549 25.6425 45.8379 25.6425C45.4329 25.6425 45.0939 25.9395 45.0939 26.4345ZM45.3159 26.2785C45.3669 25.9755 45.5859 25.8135 45.8349 25.8135C46.0569 25.8135 46.2489 25.9665 46.2609 26.2785H45.3159ZM47.7649 26.4345C47.7649 26.8995 48.1069 27.2235 48.5539 27.2235C48.8959 27.2235 49.1149 27.0075 49.1149 27.0075L49.0159 26.8545C49.0159 26.8545 48.8389 27.0405 48.5629 27.0405C48.2509 27.0405 47.9839 26.8215 47.9779 26.4405H49.1359C49.1359 26.4405 49.1419 26.3745 49.1419 26.3385C49.1419 25.9635 48.9259 25.6425 48.5089 25.6425C48.1039 25.6425 47.7649 25.9395 47.7649 26.4345ZM47.9869 26.2785C48.0379 25.9755 48.2569 25.8135 48.5059 25.8135C48.7279 25.8135 48.9199 25.9665 48.9319 26.2785H47.9869ZM50.3818 27.1875H50.5828C50.7118 27.1875 50.7568 27.1335 50.7658 27.0045L50.8648 25.7235C50.8738 25.6095 50.8738 25.4235 50.8738 25.4235H50.8798C50.8798 25.4235 50.9428 25.6185 50.9908 25.7235L51.4888 26.7945H51.6778L52.1788 25.7235C52.2298 25.6155 52.2868 25.4295 52.2868 25.4295H52.2928C52.2928 25.4295 52.2928 25.6095 52.3018 25.7235L52.4008 27.0045C52.4098 27.1335 52.4548 27.1875 52.5838 27.1875H52.7878V27.0015H52.6738C52.6318 27.0015 52.6108 26.9805 52.6078 26.9355L52.4608 25.0785H52.2478L51.6898 26.3055C51.6418 26.4135 51.5878 26.5545 51.5878 26.5545H51.5818C51.5818 26.5545 51.5278 26.4135 51.4768 26.3055L50.9188 25.0785H50.7058L50.5588 26.9355C50.5558 26.9805 50.5348 27.0015 50.4928 27.0015H50.3818V27.1875ZM53.075 26.7765C53.075 27.0765 53.336 27.2235 53.588 27.2235C53.966 27.2235 54.092 26.8965 54.089 26.8965H54.095C54.095 26.8965 54.092 26.9415 54.092 27.0075C54.092 27.1305 54.143 27.1875 54.272 27.1875H54.479V27.0105H54.353C54.311 27.0105 54.287 26.9895 54.287 26.9445V26.2215C54.287 25.8975 54.173 25.6425 53.696 25.6425C53.564 25.6425 53.204 25.6875 53.204 25.8975V26.0415H53.399V25.9455C53.399 25.8345 53.618 25.8135 53.693 25.8135C53.969 25.8135 54.083 25.9245 54.083 26.2395V26.2575H53.999C53.738 26.2575 53.075 26.2755 53.075 26.7765ZM53.285 26.7645C53.285 26.4255 53.759 26.4195 53.996 26.4195H54.083V26.4885C54.083 26.7495 53.909 27.0495 53.621 27.0495C53.396 27.0495 53.285 26.9055 53.285 26.7645ZM54.9089 27.1875H55.1129V26.4645C55.1129 26.3925 55.1189 26.3235 55.1369 26.2605C55.2059 26.0115 55.4279 25.8345 55.6859 25.8345C55.9769 25.8345 56.0129 26.0445 56.0129 26.2815V27.0045C56.0129 27.1335 56.0669 27.1875 56.1959 27.1875H56.4089V27.0105H56.2829C56.2409 27.0105 56.2169 26.9895 56.2169 26.9445V26.2275C56.2169 25.8555 56.0849 25.6425 55.7099 25.6425C55.3559 25.6425 55.1639 25.8855 55.1099 26.0235H55.1039C55.1039 26.0235 55.1099 25.9755 55.1099 25.9155V25.8465C55.1099 25.7325 55.0529 25.6785 54.9269 25.6785H54.7169V25.8555H54.8429C54.8849 25.8555 54.9089 25.8795 54.9089 25.9215V27.1875ZM56.8301 27.1875H57.0341V26.4645C57.0341 26.3925 57.0401 26.3235 57.0581 26.2635C57.1271 26.0115 57.3491 25.8345 57.6041 25.8345C57.8981 25.8345 57.9341 26.0445 57.9341 26.2815V27.0045C57.9341 27.1335 57.9881 27.1875 58.1171 27.1875H58.3301V27.0105H58.2041C58.1621 27.0105 58.1381 26.9895 58.1381 26.9445V26.2275C58.1381 25.8555 58.0061 25.6425 57.6311 25.6425C57.2921 25.6425 57.0911 25.8735 57.0341 26.0175H57.0281C57.0281 26.0175 57.0341 25.9635 57.0341 25.8945V25.2555C57.0341 25.1325 56.9801 25.0785 56.8511 25.0785H56.6381V25.2555H56.7641C56.8061 25.2555 56.8301 25.2795 56.8301 25.3215V27.1875ZM58.6195 26.7765C58.6195 27.0765 58.8805 27.2235 59.1325 27.2235C59.5105 27.2235 59.6365 26.8965 59.6335 26.8965H59.6395C59.6395 26.8965 59.6365 26.9415 59.6365 27.0075C59.6365 27.1305 59.6875 27.1875 59.8165 27.1875H60.0235V27.0105H59.8975C59.8555 27.0105 59.8315 26.9895 59.8315 26.9445V26.2215C59.8315 25.8975 59.7175 25.6425 59.2405 25.6425C59.1085 25.6425 58.7485 25.6875 58.7485 25.8975V26.0415H58.9435V25.9455C58.9435 25.8345 59.1625 25.8135 59.2375 25.8135C59.5135 25.8135 59.6275 25.9245 59.6275 26.2395V26.2575H59.5435C59.2825 26.2575 58.6195 26.2755 58.6195 26.7765ZM58.8295 26.7645C58.8295 26.4255 59.3035 26.4195 59.5405 26.4195H59.6275V26.4885C59.6275 26.7495 59.4535 27.0495 59.1655 27.0495C58.9405 27.0495 58.8295 26.9055 58.8295 26.7645ZM60.2794 26.9595C60.2794 26.9595 60.4654 27.2235 60.8584 27.2235C61.1584 27.2235 61.3864 27.0525 61.3864 26.8005C61.3864 26.2995 60.5404 26.3775 60.5404 26.0385C60.5404 25.8915 60.6664 25.8195 60.8764 25.8195C60.9754 25.8195 61.1374 25.8615 61.1374 25.9725V26.0445H61.3294V25.9155C61.3294 25.7025 61.0234 25.6425 60.8704 25.6425C60.5674 25.6425 60.3334 25.7775 60.3334 26.0505C60.3334 26.5365 61.1794 26.4765 61.1794 26.8065C61.1794 26.9655 61.0294 27.0465 60.8614 27.0465C60.5644 27.0465 60.3964 26.8185 60.3964 26.8185L60.2794 26.9595Z" fill="black"/>
</svg>
